<svg id="图层_1" data-name="图层 1" xmlns="http://www.w3.org/2000/svg" viewBox="0 0 561.7 561.7"><defs><style>.cls-1{fill:#fff;}</style></defs><circle class="cls-1" cx="280.85" cy="280.85" r="280.85"/><path d="M480.49,410.05,283,484.1a6.23,6.23,0,0,1-4.34,0L81.21,410.05a6.08,6.08,0,0,1-4-5.78V157.44a6.18,6.18,0,0,1,4-5.78l197.47-74a6.07,6.07,0,0,1,4.48.06l197.33,74a6.17,6.17,0,0,1,4,5.78V404.27a6.07,6.07,0,0,1-4,5.78Zm-70.05-37.82,61.71,23.14v-172L287,154V325.94l49.37,18.52V223.77a6.17,6.17,0,0,1,8.34-5.78l61.71,23.15a6.15,6.15,0,0,1,4,5.77ZM348.73,232.68v116.4L398.1,367.6V251.19ZM101,404.27l179.9,67.46,179.89-67.46L280.86,336.81ZM274.69,154,89.56,223.42V395.36l185.13-69.42Zm197.47,56.24V161.71L287,92.29v48.53ZM274.69,140.82V92.29L89.56,161.71v48.53ZM126.59,324.05V262.34a6.18,6.18,0,0,1,4-5.78l98.73-37a6.16,6.16,0,0,1,8.34,5.77V287a6.16,6.16,0,0,1-4,5.78l-98.74,37A6.17,6.17,0,0,1,126.59,324.05Zm12.34-8.91,86.39-32.39V234.22l-86.39,32.4Z"/></svg>