<?xml version="1.0" encoding="utf-8"?>
<!-- Generator: Adobe Illustrator 25.3.1, SVG Export Plug-In . SVG Version: 6.00 Build 0)  -->
<svg version="1.1" id="图层_1" xmlns="http://www.w3.org/2000/svg" xmlns:xlink="http://www.w3.org/1999/xlink" x="0px" y="0px"
	 viewBox="0 0 561.7 561.7" xml:space="preserve">
<style type="text/css">
  path { fill: #222; }
  @media (prefers-color-scheme: dark) {
    path { fill: #ffffff; }
  }
</style>
<path d="M556.2,459L283.8,561.2c-1.9,0.7-4.1,0.7-6,0L5.5,459c-3.3-1.2-5.6-4.4-5.5-8V110.6c0-3.5,2.2-6.7,5.5-8L277.8,0.6
	c2-0.8,4.2-0.7,6.2,0.1l272.2,102.1c3.3,1.2,5.5,4.4,5.5,8v340.4C561.8,454.6,559.5,457.8,556.2,459z M459.6,406.9l85.1,31.9V201.5
	l-255.4-95.7V343l68.1,25.5V202.1c0-4.7,3.8-8.5,8.5-8.5c1,0,2,0.2,3,0.5L454,226c3.3,1.2,5.5,4.4,5.5,8L459.6,406.9z M374.5,214.4
	v160.6l68.1,25.5V239.9L374.5,214.4z M32.8,451.1l248.1,93l248.1-93l-248.2-93L32.8,451.1z M272.3,105.8L17,201.6v237.2L272.3,343
	V105.8z M544.7,183.4v-66.9L289.3,20.7v66.9L544.7,183.4z M272.3,87.7V20.7L17,116.5v66.9L272.3,87.7z M68.1,340.4v-85.1
	c0-3.5,2.2-6.7,5.5-8l136.2-51c4.4-1.7,9.3,0.6,11,4.9c0.4,1,0.6,2,0.5,3v85.1c0,3.5-2.2,6.7-5.5,8l-136.2,51c-4.4,1.6-9.3-0.6-11-5
	C68.2,342.4,68.1,341.4,68.1,340.4z M85.1,328.1l119.2-44.7v-66.9L85.1,261.2V328.1z"/>
</svg>
