<?xml version="1.0" encoding="utf-8"?>
<!-- Generator: Adobe Illustrator 25.3.1, SVG Export Plug-In . SVG Version: 6.00 Build 0)  -->
<svg version="1.1" id="图层_1" width="100" height="100" xmlns="http://www.w3.org/2000/svg" xmlns:xlink="http://www.w3.org/1999/xlink" x="0px" y="0px"
	 viewBox="0 0 561.7 561.7" style="enable-background:new 0 0 561.7 561.7;" xml:space="preserve">
<style type="text/css">
	.st0{fill:#FFFFFF;}
</style>
<circle class="st0" cx="280.9" cy="280.9" r="280.9"/>
<g>
	<path d="M480.5,410L283,484.1c-1.4,0.5-2.9,0.5-4.3,0L81.2,410c-2.7-1-4-3.4-4-5.8V157.4c0-2.6,1.6-4.9,4-5.8l197.5-74.1
		c1.5-0.6,3.1-0.5,4.5,0.1l197.3,74c2.4,0.9,4,3.2,4,5.8v246.8C484.5,406.7,483.2,409,480.5,410L480.5,410z M410.4,372.2l61.7,23.1
		V223.4L287,154v171.9l49.4,18.5V223.8c0-4.3,4.3-7.3,8.3-5.8l61.7,23.1c2.4,0.9,4,3.2,4,5.8L410.4,372.2z M348.7,232.7v116.4
		l49.4,18.5V251.2L348.7,232.7z M101,404.3l179.9,67.5l179.9-67.5l-179.9-67.5L101,404.3z M274.7,154L89.6,223.4v171.9l185.1-69.4
		V154z M472.2,210.2v-48.5L287,92.3v48.5L472.2,210.2z M274.7,140.8V92.3L89.6,161.7v48.5L274.7,140.8z M126.6,324v-61.7
		c0-2.6,1.6-4.9,4-5.8l98.7-37c4-1.5,8.3,1.5,8.3,5.8V287c0,2.6-1.6,4.9-4,5.8l-98.7,37C130.9,331.3,126.6,328.4,126.6,324z
		 M138.9,315.1l86.4-32.4v-48.5l-86.4,32.4L138.9,315.1z"/>
</g>
</svg>
