<?xml version="1.0" standalone="no"?>
<!DOCTYPE svg PUBLIC "-//W3C//DTD SVG 20010904//EN"
 "http://www.w3.org/TR/2001/REC-SVG-20010904/DTD/svg10.dtd">
<svg version="1.0" xmlns="http://www.w3.org/2000/svg"
 width="100" height="100" viewBox="0 0 256.000000 256.000000"
 preserveAspectRatio="xMidYMid meet">

<g transform="translate(0.000000,256.000000) scale(0.100000,-0.100000)"
fill="#000000" stroke="none">
<path d="M1195 2179 c-115 -40 -209 -120 -262 -224 -41 -79 -53 -140 -53 -272
l0 -123 -135 0 c-151 0 -184 -9 -210 -60 -44 -85 13 -180 109 -180 42 0 35 43
77 -480 33 -411 39 -439 90 -465 42 -22 896 -22 938 0 51 26 57 54 90 465 42
523 35 480 77 480 19 0 48 7 64 15 79 41 79 169 0 210 -18 9 -56 15 -103 15
l-75 0 -4 148 c-3 142 -5 150 -36 216 -60 127 -147 208 -270 252 -88 31 -211
32 -297 3z m307 -93 c78 -37 143 -103 181 -184 30 -63 32 -74 35 -204 l4 -138
-382 0 -382 0 4 138 c3 123 6 143 30 194 36 77 73 122 133 162 80 54 127 67
230 63 73 -3 101 -8 147 -31z m-622 -646 l0 -40 -128 0 c-130 0 -152 6 -152
40 0 34 22 40 152 40 l128 0 0 -40z m1074 18 c8 -13 8 -23 0 -35 -10 -17 -47
-18 -503 -21 l-491 -2 0 40 0 40 491 -2 c456 -3 493 -4 503 -20z m-1074 -176
c0 -26 -6 -41 -20 -50 -22 -14 -26 -42 -8 -60 16 -16 120 -16 136 0 18 18 14
46 -8 60 -14 9 -20 24 -20 50 l0 38 421 0 421 0 -6 -37 c-3 -21 -20 -213 -37
-428 -17 -214 -36 -396 -41 -403 -15 -18 -861 -18 -876 1 -5 6 -24 188 -41
402 -17 215 -34 407 -37 428 l-6 37 61 0 61 0 0 -38z"/>
</g>
</svg>
